<?xml version="1.0" ?><!DOCTYPE svg  PUBLIC '-//W3C//DTD SVG 1.1//EN'  'http://www.w3.org/Graphics/SVG/1.1/DTD/svg11.dtd'><svg enable-background="new 0 0 500 500" height="500px" id="Layer_1" version="1.1" viewBox="0 0 500 500" width="500px" xml:space="preserve" xmlns="http://www.w3.org/2000/svg" xmlns:xlink="http://www.w3.org/1999/xlink"><g><path d="M181.84,358.85c-6.064,0-10.981-5.077-10.981-11.339V152.489c0-6.262,4.916-11.339,10.981-11.339    s10.981,5.077,10.981,11.339v195.023C192.821,353.773,187.905,358.85,181.84,358.85z M233.06,161.031    c-0.328,0.032-2.936,0.367-10.395,3.422c-3.236,1.326-6.316,2.727-8.354,3.682v75.685c0.512-0.211,1.029-0.42,1.55-0.628    c7.79-3.11,13.069-4.497,17.116-4.497c19.413,0,29.445,5.732,38.296,10.79c7.551,4.315,13.517,7.723,26.448,7.73    c0.246-0.015,2.927-0.245,11.144-3.337c3.327-1.252,6.496-2.573,8.658-3.502V174.41c-0.735,0.282-1.482,0.564-2.234,0.841    c-10.34,3.811-14.8,4.3-17.529,4.3c-18.623,0-28.436-5.611-37.093-10.562C252.905,164.552,246.773,161.045,233.06,161.031     M232.976,149.693c32.94,0,32.94,18.52,64.782,18.52c6.176,0,22.023-6.828,26.11-8.636c0.426-0.188,0.88-0.283,1.33-0.283    c0.726,0,1.442,0.247,2.012,0.746c0.79,0.693,1.292,1.727,1.292,2.882v92.782c0,1.948-1.428,3.553-3.262,3.757    c-0.314,0.035-0.618,0.122-0.908,0.251c-3.159,1.409-20.13,8.842-26.574,8.842c-31.842,0-31.893-18.52-64.782-18.52    c-5.918,0-20.853,6.977-24.939,8.94c-0.453,0.218-0.941,0.326-1.424,0.326c-0.811,0-1.608-0.306-2.203-0.915    c-0.667-0.685-1.081-1.633-1.081-2.682v-92.782c0-1.927,1.396-3.516,3.2-3.75c0.347-0.045,0.684-0.14,1-0.294    C210.684,157.348,226.777,149.693,232.976,149.693L232.976,149.693z"/></g></svg>